<svg xmlns="http://www.w3.org/2000/svg" width="170" height="40" viewBox="0 0 170 40">
    <g fill="none" fill-rule="nonzero">
        <path fill="#C09430" d="M169.55 39.817l-6.789-16.52L169.55 6.81l.18.183V6.81H17.18v33.008h152.55v-.214z"/>
        <path fill="#A47B1C" d="M153.78 35.939l-136.6 3.878V28.153z"/>
        <path fill="#E4B240" d="M0 0v.305L.18 0l8.41 18.26L.48 35.939h153.3V0z"/>
        <path fill="#000" d="M73.076 17.374h-3.334V14.84h3.154l.09 1.16h1.532v-2.718h-7.84v1.252l1.052.184v7.297l-1.052.183v1.07h7.81V20.55h-1.502l-.09 1.16h-3.154v-2.9h3.334v-1.436zm2.102 5.924h3.815v-1.16l-.751-.092 1.622-2.535 1.622 2.535-.751.091v1.16h3.905v-1.16l-.871-.183-2.674-3.694 2.583-3.604.871-.183v-1.252h-3.814v1.252l.75.092-1.53 2.443-1.713-2.443.75-.092v-1.252h-3.814v1.252l.871.183 2.584 3.604-2.674 3.694-.87.183.09 1.16zm17.661-8.642c-.48-.488-.96-.885-1.532-1.16-.66-.305-1.351-.488-2.102-.397-1.232 0-2.493.489-3.244 1.466-.87.977-1.351 2.32-1.231 3.603v.305c-.09 1.374.39 2.626 1.231 3.603.871.977 2.012 1.466 3.244 1.374.75 0 1.442-.091 2.102-.397.571-.305 1.142-.671 1.532-1.16v-2.046h-1.532l-.18 1.374c-.18.184-.48.397-.75.489-.391.092-.661.183-1.052.183-.75 0-1.532-.305-2.012-.977-.48-.763-.751-1.649-.661-2.534v-.397c0-.886.18-1.74.66-2.535.481-.671 1.232-.977 2.013-.977.39 0 .751.092 1.051.183.3.092.571.306.751.489l.18 1.374h1.532v-1.863zm8.11 8.642v-2.81h-1.532l-.09 1.252h-2.854v-7.084l1.052-.183v-1.252H93.41v1.252l1.051.183v7.298l-1.051.183v1.16h7.539zm2.883-9.985h-3.063v1.252l1.05.183V20c-.09.977.391 1.954 1.142 2.626 1.712 1.252 4.025 1.252 5.827 0 .75-.672 1.141-1.649 1.141-2.626v-5.252l1.052-.183v-1.252h-4.115v1.252l1.051.183V20c0 .58-.18 1.069-.57 1.466-.391.397-.962.488-1.442.488-.571 0-1.052-.183-1.442-.488-.39-.397-.57-.977-.57-1.466v-5.252l1.05-.183v-1.252h-1.11zm14.898 1.16c-.48-.397-.961-.763-1.622-.977-.661-.183-1.352-.397-2.103-.397-.96 0-1.802.306-2.583.764-.66.488-1.051 1.16-1.051 2.045 0 .764.3 1.466.871 1.955.871.58 1.712.977 2.673 1.252.48.091.961.396 1.442.671.3.183.39.58.39.977s-.18.672-.39.886c-.39.305-.751.397-1.232.305-.39 0-.75-.091-1.14-.183-.301-.092-.572-.183-.872-.397l-.18-1.466H111.4v2.138c.48.488.961.763 1.622 1.069.66.305 1.442.396 2.102.396.962 0 1.923-.183 2.674-.763a2.56 2.56 0 0 0 1.05-2.046c0-.763-.3-1.465-.87-2.046-.751-.58-1.622-.977-2.493-1.251-.57-.184-1.141-.397-1.622-.672-.3-.183-.48-.489-.48-.886s.18-.671.48-.885c.39-.306.871-.397 1.231-.397.39 0 .661 0 1.052.091.3.092.48.184.75.306l.3 1.374h1.533v-1.863zm1.712.183v7.298l-1.052.183v1.16h4.115v-1.16l-1.05-.183v-7.298l1.05-.183v-1.252h-4.115v1.252l1.052.183zm6.968-1.343h-3.634v1.252l.87.091 2.974 8.733h2.103l2.973-8.733.871-.091v-1.252h-3.634v1.252l.72.091-1.711 6.016-.09.58h-.09l-.09-.58-1.743-6.016.751-.091-.27-1.252zm15.288 4.947c0-1.375-.39-2.626-1.232-3.695-.87-.977-2.012-1.466-3.243-1.466-1.232 0-2.493.489-3.244 1.466a4.943 4.943 0 0 0-1.232 3.695v.183c-.09 1.374.39 2.626 1.232 3.694 1.712 1.832 4.475 1.955 6.307.184l.18-.184c.871-1.068 1.352-2.32 1.232-3.694v-.183zm-1.922.091c0 .886-.18 1.74-.661 2.534-.39.672-1.142.978-1.922.978-.781 0-1.442-.306-1.923-.978-.48-.763-.66-1.648-.66-2.534v-.183c0-.886.18-1.74.66-2.534.39-.672 1.142-.978 1.923-.978.78 0 1.531.306 1.922.978.48.763.66 1.648.66 2.534v.183z"/>
        <g fill="#FFF">
            <path d="M47.276 14.29v-2.81h-9.672v3.024h5.377l-5.647 6.778v2.901h10.002V21.16h-5.827zM56.256 16.305h-4.445v-4.824h-3.094v12.702h3.094v-4.885h4.445v4.885h3.094V11.481h-3.094zM30.576 19.939h2.283l-.03.092c-.09.213-.3.55-.631.854-.54.459-1.232.703-2.073.703-.96 0-1.802-.336-2.432-.947-.661-.672-1.022-1.618-1.022-2.778 0-1.191.39-2.168 1.112-2.81.6-.55 1.411-.855 2.282-.855 1.322 0 2.043.611 2.433 1.16h3.394l-.06-.182c-.33-1.039-.93-1.985-1.772-2.626-1.051-.855-2.403-1.313-4.025-1.313-1.742 0-3.364.64-4.565 1.801-1.231 1.222-1.922 2.931-1.922 4.794 0 1.893.66 3.603 1.862 4.794 1.171 1.19 2.763 1.801 4.475 1.801 1.232 0 2.343-.366 3.064-1.038v.794h2.853v-6.962h-5.256v2.718h.03z"/>
        </g>
    </g>
</svg>
